<?xml version="1.0" standalone="no"?>
<!DOCTYPE svg PUBLIC "-//W3C//DTD SVG 20010904//EN"
 "http://www.w3.org/TR/2001/REC-SVG-20010904/DTD/svg10.dtd">
<svg version="1.0" xmlns="http://www.w3.org/2000/svg"
 width="800.000000pt" height="800.000000pt" viewBox="0 0 800.000000 800.000000"
 preserveAspectRatio="xMidYMid meet">

<g transform="translate(0.000000,800.000000) scale(0.100000,-0.100000)"
fill="#000000" stroke="none">
<path d="M3845 7129 c-308 -12 -638 -77 -900 -178 -44 -17 -83 -31 -88 -31 -4
0 -68 -27 -140 -61 -415 -192 -750 -439 -1053 -778 -286 -319 -550 -797 -660
-1196 -95 -346 -132 -643 -120 -980 3 -104 11 -221 16 -260 6 -38 14 -95 19
-125 16 -105 52 -266 82 -365 39 -125 95 -282 114 -316 7 -14 24 -52 36 -85
60 -160 302 -554 447 -725 85 -101 301 -316 402 -401 419 -351 968 -602 1505
-687 350 -56 714 -52 1035 9 195 37 215 42 330 76 383 116 706 281 1035 528
127 95 397 358 496 481 374 466 600 989 691 1600 20 137 17 668 -5 806 -22
135 -63 336 -75 370 -6 14 -18 57 -27 95 -32 129 -158 429 -247 589 -176 315
-324 510 -569 750 -214 209 -398 347 -646 486 -448 250 -886 374 -1418 402
-38 2 -155 0 -260 -4z m450 -189 c462 -52 846 -183 1243 -424 608 -369 1081
-986 1277 -1668 81 -280 115 -523 115 -823 0 -347 -35 -574 -137 -905 -98
-318 -281 -656 -511 -945 -142 -178 -355 -384 -522 -506 -83 -60 -199 -138
-245 -164 -182 -103 -180 -103 -194 -47 -29 107 -27 115 46 193 31 34 44 55
41 71 -3 21 -9 24 -93 31 -49 4 -95 13 -102 20 -6 7 -29 41 -51 77 -56 93 -74
91 -119 -17 -37 -89 -42 -92 -142 -113 -30 -6 -61 -15 -68 -22 -14 -11 -18
-48 -5 -48 4 0 33 -25 66 -55 l58 -55 -3 -91 c-5 -123 1 -127 109 -64 78 45
83 47 114 34 18 -7 43 -19 56 -27 22 -15 23 -16 5 -32 -41 -39 -342 -148 -538
-195 -470 -113 -981 -110 -1431 10 -241 64 -404 127 -611 235 -580 303 -1014
747 -1297 1325 -211 431 -307 880 -293 1369 8 284 43 490 137 816 65 225 254
595 424 830 350 485 891 877 1461 1061 172 55 410 105 630 132 69 9 497 6 580
-3z"/>
<path d="M3745 6850 c-168 -17 -371 -55 -505 -95 -25 -7 -72 -21 -105 -30
-175 -51 -482 -191 -635 -290 -293 -188 -516 -388 -732 -656 -106 -131 -110
-143 -67 -167 18 -9 46 -29 62 -45 27 -25 28 -32 24 -85 -2 -31 -10 -75 -16
-97 -28 -92 -67 -285 -81 -395 -23 -189 -10 -460 34 -680 46 -235 168 -531
294 -710 330 -469 809 -768 1391 -867 70 -12 157 -16 324 -15 l228 0 -3 -26
c-3 -25 -7 -28 -68 -35 -104 -13 -410 0 -540 23 -677 118 -1246 542 -1536
1144 -136 282 -191 517 -201 854 -7 248 15 432 77 647 27 95 26 146 -3 173
-54 51 -117 14 -177 -106 -136 -275 -245 -600 -317 -948 -27 -135 -28 -148
-27 -429 0 -255 3 -306 23 -420 83 -472 247 -882 489 -1219 147 -204 366 -439
513 -551 248 -188 298 -222 460 -309 389 -207 813 -320 1249 -333 248 -7 376
1 389 26 6 10 1 64 -13 148 -12 73 -19 140 -15 150 4 10 23 27 42 38 l36 19
80 -33 c115 -48 125 -39 95 79 -9 34 -13 72 -10 85 3 13 28 50 56 83 27 33 50
65 50 71 0 12 -21 18 -105 26 -89 9 -92 11 -130 80 -62 111 -81 111 -125 0
-20 -50 -33 -70 -45 -70 -20 0 -27 31 -110 505 -25 146 -57 324 -70 395 -52
282 -52 275 -26 297 38 30 67 32 126 8 71 -29 90 -22 81 28 -19 113 -19 116 9
147 72 81 68 105 -17 105 -65 0 -82 11 -124 76 -41 65 -51 63 -91 -16 -42 -82
-55 -74 -75 45 -15 90 -40 234 -99 570 -10 61 -26 157 -35 215 -8 58 -29 182
-46 275 -17 94 -34 190 -38 215 -10 55 -77 291 -86 299 -3 3 -94 9 -202 12
-154 5 -216 11 -284 28 -102 25 -119 23 -208 -29 -120 -71 -185 -75 -305 -19
-38 17 -87 34 -109 37 -101 12 -127 61 -86 161 46 111 218 288 350 357 100 53
354 215 437 280 87 68 119 104 203 227 47 69 61 82 115 108 72 34 85 46 118
114 17 35 27 76 32 135 8 95 25 134 68 151 24 10 32 9 55 -8 26 -19 27 -24 26
-104 0 -46 -4 -110 -9 -141 -7 -50 -6 -58 8 -58 33 0 48 44 56 172 12 174 34
218 110 218 32 0 44 -6 66 -32 27 -32 27 -34 20 -128 -5 -52 -9 -133 -9 -180
-1 -75 2 -90 26 -131 15 -26 49 -64 75 -85 26 -22 73 -62 104 -91 67 -60 99
-69 196 -56 39 6 81 7 98 2 16 -5 50 -9 75 -9 55 0 90 -22 90 -55 0 -31 -86
-133 -164 -197 -54 -43 -126 -79 -186 -92 -36 -8 -84 -58 -104 -110 l-17 -44
44 -114 c194 -496 182 -452 152 -516 -21 -46 -26 -50 -74 -62 -63 -15 -67 -38
-16 -86 32 -29 35 -37 35 -87 0 -31 4 -58 9 -62 6 -3 34 6 64 21 l54 26 46
-20 c27 -12 51 -31 57 -44 106 -255 164 -390 225 -523 12 -27 35 -79 51 -115
112 -259 399 -748 546 -931 24 -30 63 -81 88 -113 40 -52 82 -101 183 -209 40
-43 35 -57 -18 -57 -69 0 -87 14 -144 110 -29 49 -58 91 -66 93 -20 8 -39 -19
-80 -120 -42 -103 -24 -90 -173 -127 -67 -16 -92 -30 -92 -51 0 -7 37 -46 81
-86 l82 -74 -7 -111 c-5 -92 -4 -113 8 -123 18 -15 50 -7 91 24 17 12 53 34
81 49 l52 27 96 -41 c53 -23 104 -40 114 -38 26 5 26 37 -1 135 -27 98 -25
117 23 167 16 17 40 45 54 61 28 34 29 34 127 -40 61 -46 195 -126 251 -149
35 -15 38 -15 62 7 14 12 53 63 89 112 214 302 383 721 457 1135 63 357 45
776 -50 1145 -37 142 -80 280 -129 407 -36 94 -169 347 -235 448 -105 159
-234 317 -376 460 -146 147 -156 156 -275 247 -261 197 -601 371 -935 478
-191 61 -257 61 -281 -2 -17 -45 19 -84 133 -148 126 -71 214 -130 370 -251
67 -53 227 -217 300 -309 333 -421 484 -905 446 -1435 -14 -204 -78 -486 -144
-642 -73 -169 -227 -428 -305 -513 -34 -37 -44 -43 -60 -34 -10 5 -19 16 -19
24 0 8 28 52 63 97 271 356 423 838 403 1281 -14 313 -70 536 -201 802 -112
229 -226 385 -411 565 -190 184 -313 277 -520 388 -59 32 -117 70 -128 86 -21
27 -21 34 -13 151 2 29 1 29 -73 42 -97 16 -499 24 -615 13z"/>
<path d="M4425 5871 c-60 -8 -87 -22 -140 -72 -37 -36 -39 -39 -23 -55 14 -14
28 -15 92 -9 69 6 82 11 137 51 47 35 60 50 57 67 -3 25 -35 30 -123 18z"/>
<path d="M3641 5814 c-41 -13 -78 -29 -82 -36 -6 -8 2 -23 21 -41 17 -15 30
-36 30 -46 0 -26 32 -51 66 -51 16 0 38 -7 48 -15 11 -8 29 -15 40 -15 25 0
124 45 148 67 24 22 11 42 -69 108 -77 64 -89 65 -202 29z"/>
<path d="M2699 5314 c-46 -14 -86 -54 -74 -74 17 -28 98 0 134 46 35 44 18 52
-60 28z"/>
<path d="M3905 5105 c-13 -30 -30 -57 -37 -59 -7 -3 -33 -10 -58 -18 -60 -18
-63 -40 -11 -85 40 -34 41 -36 41 -99 0 -80 11 -86 79 -48 l50 28 56 -18 c72
-25 83 -16 67 54 -13 56 -4 87 37 124 41 37 23 66 -42 66 -56 0 -71 10 -99 61
-16 27 -35 49 -43 49 -9 0 -26 -23 -40 -55z"/>
<path d="M4216 4328 c-13 -29 -33 -74 -44 -100 -22 -51 -27 -53 -182 -90 -69
-17 -71 -37 -9 -88 23 -19 60 -51 81 -70 l38 -35 -11 -104 c-14 -148 -10 -151
116 -77 107 65 86 64 223 7 41 -17 78 -28 83 -25 15 9 10 65 -12 144 -24 87
-23 90 55 180 81 93 77 102 -52 116 -62 6 -109 17 -117 25 -7 8 -33 48 -58 89
-57 98 -78 103 -111 28z"/>
<path d="M4777 3493 c-3 -5 -19 -43 -37 -85 -35 -85 -28 -81 -158 -109 -78
-16 -78 -31 4 -107 l69 -65 0 -96 c0 -117 6 -121 100 -62 75 48 100 50 173 16
30 -14 65 -25 78 -25 29 0 31 22 9 107 -8 31 -15 64 -15 73 0 9 25 45 55 82
81 97 74 115 -44 117 -40 1 -81 5 -90 10 -9 5 -30 34 -45 63 -16 29 -36 61
-44 71 -15 17 -47 23 -55 10z"/>
<path d="M4473 2752 c-6 -4 -26 -38 -45 -77 l-34 -70 -73 -20 c-107 -29 -111
-42 -33 -111 l63 -56 -7 -68 c-6 -69 4 -110 29 -110 7 0 37 16 67 35 63 39 95
43 148 16 84 -43 115 -25 94 54 -21 79 -16 102 33 159 25 29 45 62 45 74 0 22
-12 26 -111 37 -62 7 -71 14 -113 87 -28 47 -45 61 -63 50z"/>
</g>
</svg>
